<svg width="358" height="244" viewBox="0 0 358 244" fill="none" xmlns="http://www.w3.org/2000/svg">
<g id="Frame 7">
<path id="Combined Shape" fill-rule="evenodd" clip-rule="evenodd" d="M100 0H0V4H100V0ZM100 8H0V12H100V8ZM0 16H100V20H0V16ZM100 24H0V28H100V24ZM0 32H100V36H0V32ZM100 40H0V44H100V40Z" fill="#79C8C7"/>
<g id="Group 4">
<circle id="Oval" cx="100" cy="144" r="100" fill="#2C6269"/>
<path id="Combined Shape_2" fill-rule="evenodd" clip-rule="evenodd" d="M258 244C313.228 244 358 199.228 358 144C358 88.7715 313.228 44 258 44C202.772 44 158 88.7715 158 144C158 199.228 202.772 244 258 244ZM258 177C276.225 177 291 162.225 291 144C291 125.775 276.225 111 258 111C239.775 111 225 125.775 225 144C225 162.225 239.775 177 258 177Z" fill="#012F34"/>
<rect id="Rectangle" x="358" y="87" width="43" height="43" transform="rotate(-180 358 87)" fill="#79C8C7"/>
<path id="Combined Shape Copy" fill-rule="evenodd" clip-rule="evenodd" d="M233.514 244C288.742 244 333.514 199.228 333.514 144C333.514 88.7715 288.742 44 233.514 44C178.285 44 133.514 88.7715 133.514 144C133.514 199.228 178.285 244 233.514 244ZM233.514 177C251.739 177 266.514 162.225 266.514 144C266.514 125.775 251.739 111 233.514 111C215.288 111 200.514 125.775 200.514 144C200.514 162.225 215.288 177 233.514 177Z" fill="#F67E7E"/>
</g>
</g>
</svg>
